<svg width="143" height="26" viewBox="0 0 143 26" fill="none" xmlns="http://www.w3.org/2000/svg">
<path d="M38.8797 0.141998V6.32261H52.519V10.0847H30.6716V25.6226H38.0626H59.5429V0.141998H38.8797ZM38.0604 19.4856V16.5253H52.519V19.4856H38.0604Z" fill="#25373B"/>
<path d="M28.9652 0.128907V25.45H21.7927V16.7657H7.13097V25.4238H0V0.102692H7.13097V9.57351H21.7927V0.128907H28.9652Z" fill="#25373B"/>
<path d="M88.4954 0.141998V25.45H61.3391V0.141998H68.6886V19.3436H81.3425V0.141998H88.4954Z" fill="#25373B"/>
<path d="M115.817 18.8127V25.4499H90.2842V0.220642H97.6096V18.8127H115.817Z" fill="#25373B"/>
<path d="M139.354 12.7239L139.081 12.8222L139.354 12.9445L143.001 14.5918V25.533H135.57V16.4117H124.725V25.533H117.468V0H124.725V10.7598H135.57V0.456609H143.001V11.3978L139.354 12.7239Z" fill="#25373B"/>
<path d="M139.353 12.7239V12.9446L139.08 12.8222L139.353 12.7239Z" fill="#25373B"/>
</svg>
