<svg width="21" height="20" viewBox="0 0 21 20" fill="none" xmlns="http://www.w3.org/2000/svg">
<circle cx="10.3333" cy="10" r="10" fill="#D3D7D8"/>
<path d="M6.46589 13H13.0779V11.668H8.55389L10.7379 9.856C11.5659 9.172 12.1539 8.584 12.5019 8.092C12.8499 7.588 13.0299 6.988 13.0299 6.304C13.0299 5.464 12.7299 4.78 12.1299 4.264C11.5299 3.736 10.7619 3.472 9.83789 3.472C9.03389 3.472 8.33789 3.676 7.74989 4.096C7.17389 4.516 6.78989 5.068 6.59789 5.752L7.91789 6.304C8.28989 5.32 8.92589 4.828 9.82589 4.828C10.8699 4.828 11.5059 5.512 11.5059 6.412C11.5059 6.832 11.3859 7.204 11.1459 7.54C10.9059 7.864 10.4619 8.308 9.82589 8.848L6.46589 11.716V13Z" fill="#252A31"/>
</svg>
