<svg width="687" height="763" viewBox="0 0 687 763" fill="none" xmlns="http://www.w3.org/2000/svg">
<path d="M626.228 671.63L626.877 681.678L580.74 641.442L621.089 595.306L621.848 605.582L664.413 602.679L668.906 668.729L626.228 671.63Z" stroke="#31CF30" stroke-opacity="0.1" stroke-width="3.38361" stroke-miterlimit="10"/>
<path d="M529.389 586.244L528.174 576.3L576.379 613.858L538.707 662.174L537.383 652.004L495.124 657.167L486.904 591.516L529.389 586.244Z" stroke="#31CF30" stroke-opacity="0.1" stroke-width="3.38361" stroke-miterlimit="10"/>
<path d="M351.95 667.802L352.6 677.85L306.576 637.615L346.812 591.479L347.571 601.754L390.136 598.851L394.629 664.901L351.95 667.802Z" stroke="#31CF30" stroke-opacity="0.1" stroke-width="3.38361" stroke-miterlimit="10"/>
<path d="M483.544 711.035L493.483 710.159L454.364 757.101L407.198 717.865L417.476 716.881L413.669 674.416L479.627 668.456L483.544 711.035Z" stroke="#31CF30" stroke-opacity="0.1" stroke-width="3.38361" stroke-miterlimit="10"/>
<path d="M396.674 542.656L386.624 543.418L426.414 496.937L473.006 536.841L462.618 537.598L465.972 580.17L399.913 585.339L396.674 542.656Z" stroke="#31CF30" stroke-opacity="0.1" stroke-width="3.38361" stroke-miterlimit="10"/>
<path d="M255.125 582.416L253.911 572.473L302.228 610.032L264.443 658.346L263.231 648.177L220.86 653.339L212.753 587.69L255.125 582.416Z" stroke="#31CF30" stroke-opacity="0.1" stroke-width="3.38361" stroke-miterlimit="10"/>
<path d="M77.6821 663.974L78.4442 674.024L32.3074 633.788L72.6562 587.652L73.3024 597.926L115.868 595.023L120.36 661.073L77.6821 663.974Z" stroke="#31CF30" stroke-opacity="0.1" stroke-width="3.38361" stroke-miterlimit="10"/>
<path d="M209.277 707.207L219.215 706.331L180.096 753.273L133.043 714.039L143.321 713.055L139.402 670.588L205.472 664.629L209.277 707.207Z" stroke="#31CF30" stroke-opacity="0.1" stroke-width="3.38361" stroke-miterlimit="10"/>
<path d="M122.406 538.828L112.356 539.59L152.145 493.109L198.738 533.013L188.463 533.772L191.704 576.342L125.645 581.511L122.406 538.828Z" stroke="#31CF30" stroke-opacity="0.1" stroke-width="3.38361" stroke-miterlimit="10"/>
<path d="M538.448 405.893L539.098 415.941L493.073 375.707L533.309 329.57L534.068 339.845L576.634 336.943L581.126 402.992L538.448 405.893Z" stroke="#31CF30" stroke-opacity="0.1" stroke-width="3.38361" stroke-miterlimit="10"/>
<path d="M670.042 449.127L679.981 448.25L640.861 495.192L593.697 455.844L603.974 454.972L600.167 412.507L666.124 406.547L670.042 449.127Z" stroke="#31CF30" stroke-opacity="0.1" stroke-width="3.38361" stroke-miterlimit="10"/>
<path d="M583.171 280.748L573.122 281.51L612.911 235.028L659.504 274.932L649.116 275.69L652.47 318.261L586.412 323.318L583.171 280.748Z" stroke="#31CF30" stroke-opacity="0.1" stroke-width="3.38361" stroke-miterlimit="10"/>
<path d="M441.732 320.509L440.404 310.564L488.721 348.123L450.937 396.438L449.725 386.269L407.354 391.43L399.246 325.781L441.732 320.509Z" stroke="#31CF30" stroke-opacity="0.1" stroke-width="3.38361" stroke-miterlimit="10"/>
<path d="M264.175 402.065L264.938 412.115L218.801 371.879L259.15 325.744L259.796 336.017L302.361 333.115L306.854 399.164L264.175 402.065Z" stroke="#31CF30" stroke-opacity="0.1" stroke-width="3.38361" stroke-miterlimit="10"/>
<path d="M395.77 445.299L405.708 444.422L366.589 491.364L319.537 452.018L329.814 451.146L326.008 408.681L391.965 402.721L395.77 445.299Z" stroke="#31CF30" stroke-opacity="0.1" stroke-width="3.38361" stroke-miterlimit="10"/>
<path d="M308.899 276.92L298.849 277.682L338.639 231.2L385.231 271.104L374.956 271.863L378.197 314.433L312.14 319.49L308.899 276.92Z" stroke="#31CF30" stroke-opacity="0.1" stroke-width="3.38361" stroke-miterlimit="10"/>
<path d="M167.462 316.681L166.247 306.738L214.452 344.296L176.78 392.611L175.455 382.441L133.197 387.604L124.976 321.954L167.462 316.681Z" stroke="#31CF30" stroke-opacity="0.1" stroke-width="3.38361" stroke-miterlimit="10"/>
<path d="M121.504 441.471L131.556 440.596L92.3235 487.537L45.2719 448.19L55.5487 447.319L51.7422 404.853L117.699 398.893L121.504 441.471Z" stroke="#31CF30" stroke-opacity="0.1" stroke-width="3.38361" stroke-miterlimit="10"/>
<path d="M34.6294 273.092L24.6925 273.856L64.4822 227.374L110.962 267.277L100.687 268.036L104.041 310.607L37.9832 315.664L34.6294 273.092Z" stroke="#31CF30" stroke-opacity="0.1" stroke-width="3.38361" stroke-miterlimit="10"/>
<path d="M628.233 58.6004L626.906 48.6557L675.223 86.215L637.551 134.531L636.227 124.36L593.855 129.522L585.748 63.873L628.233 58.6004Z" stroke="#31CF30" stroke-opacity="0.1" stroke-width="3.38361" stroke-miterlimit="10"/>
<path d="M450.79 140.159L451.439 150.207L405.302 109.971L445.651 63.8354L446.297 74.109L488.863 71.2064L493.468 137.257L450.79 140.159Z" stroke="#31CF30" stroke-opacity="0.1" stroke-width="3.38361" stroke-miterlimit="10"/>
<path d="M582.271 183.39L592.323 182.515L553.091 229.456L506.039 190.11L516.316 189.238L512.509 146.773L578.467 140.812L582.271 183.39Z" stroke="#31CF30" stroke-opacity="0.1" stroke-width="3.38361" stroke-miterlimit="10"/>
<path d="M495.4 15.0113L485.351 15.7735L525.14 -30.708L571.733 9.19598L561.458 9.95496L564.699 52.525L498.754 57.583L495.4 15.0113Z" stroke="#31CF30" stroke-opacity="0.1" stroke-width="3.38361" stroke-miterlimit="10"/>
<path d="M353.956 54.7726L352.741 44.8294L400.946 82.3871L363.274 130.703L361.949 120.533L319.691 125.695L311.471 60.0451L353.956 54.7726Z" stroke="#31CF30" stroke-opacity="0.1" stroke-width="3.38361" stroke-miterlimit="10"/>
<path d="M176.517 136.331L177.167 146.379L131.143 106.144L171.379 60.0075L172.138 70.2827L214.703 67.3801L219.195 133.43L176.517 136.331Z" stroke="#31CF30" stroke-opacity="0.1" stroke-width="3.38361" stroke-miterlimit="10"/>
<path d="M307.998 179.562L318.05 178.688L278.818 225.628L231.766 186.282L242.043 185.41L238.236 142.945L304.194 136.985L307.998 179.562Z" stroke="#31CF30" stroke-opacity="0.1" stroke-width="3.38361" stroke-miterlimit="10"/>
<path d="M221.128 11.1835L211.191 11.9472L250.98 -34.5343L297.573 5.36971L287.185 6.12712L290.539 48.6988L224.481 53.7551L221.128 11.1835Z" stroke="#31CF30" stroke-opacity="0.1" stroke-width="3.38361" stroke-miterlimit="10"/>
<path d="M79.695 50.9448L78.4802 41.0016L126.685 78.5593L89.0127 126.875L87.801 116.706L45.4298 121.868L37.3221 56.2189L79.695 50.9448Z" stroke="#31CF30" stroke-opacity="0.1" stroke-width="3.38361" stroke-miterlimit="10"/>
<path d="M-19.6106 578.244L-20.8254 568.3L27.3792 605.858L-10.2929 654.174L-11.6173 644.004L-53.8758 649.167L-62.0962 583.516L-19.6106 578.244Z" stroke="#31CF30" stroke-opacity="0.1" stroke-width="3.38361" stroke-miterlimit="10"/>
<path d="M-10.5519 397.893L-9.9026 407.941L-55.9266 367.707L-15.6906 321.57L-14.9317 331.845L27.6337 328.943L32.1262 394.992L-10.5519 397.893Z" stroke="#31CF30" stroke-opacity="0.1" stroke-width="3.38361" stroke-miterlimit="10"/>
<path d="M33.2713 175.39L43.3225 174.515L4.09048 221.456L-42.9611 182.11L-32.6844 181.238L-36.4908 138.773L29.4664 132.812L33.2713 175.39Z" stroke="#31CF30" stroke-opacity="0.1" stroke-width="3.38361" stroke-miterlimit="10"/>
<path d="M-53.5997 7.01133L-63.6494 7.77346L-23.8598 -38.708L22.7329 1.19598L12.4577 1.95496L15.6987 44.525L-50.2459 49.583L-53.5997 7.01133Z" stroke="#31CF30" stroke-opacity="0.1" stroke-width="3.38361" stroke-miterlimit="10"/>
</svg>
