<svg width="185" height="20" viewBox="0 0 185 20" fill="none" xmlns="http://www.w3.org/2000/svg">
<g clip-path="url(#clip0_3505_2906)">
<rect x="0.666748" y="9" width="184" height="2" fill="#D3D7D8"/>
</g>
<circle cx="92.6667" cy="10" r="10" fill="#D3D7D8"/>
<path d="M95.386 10.36C95.386 9.304 94.846 8.572 93.766 8.152V8.14C94.714 7.684 95.182 6.964 95.182 5.992C95.182 5.284 94.894 4.696 94.33 4.204C93.766 3.712 92.998 3.472 92.038 3.472C90.442 3.472 89.326 4.336 88.894 5.584L90.178 6.172C90.562 5.272 91.174 4.816 92.014 4.816C93.07 4.816 93.682 5.38 93.682 6.148C93.682 6.532 93.526 6.868 93.202 7.144C92.89 7.42 92.494 7.552 92.014 7.552H91.09V8.884H92.098C92.614 8.884 93.034 9.028 93.358 9.316C93.694 9.592 93.862 9.94 93.862 10.336C93.862 10.72 93.694 11.056 93.346 11.344C92.998 11.62 92.578 11.764 92.074 11.764C91.126 11.764 90.442 11.296 90.034 10.372L88.762 10.996C89.326 12.4 90.418 13.108 92.05 13.108C93.022 13.108 93.814 12.844 94.438 12.316C95.074 11.776 95.386 11.128 95.386 10.36Z" fill="#252A31"/>
<defs>
<clipPath id="clip0_3505_2906">
<path d="M0.666748 9H183.667C184.219 9 184.667 9.44772 184.667 10C184.667 10.5523 184.219 11 183.667 11H0.666748V9Z" fill="white"/>
</clipPath>
</defs>
</svg>
