<svg width="185" height="20" viewBox="0 0 185 20" fill="none" xmlns="http://www.w3.org/2000/svg">
<g clip-path="url(#clip0_3505_2897)">
<rect x="0.333252" y="9" width="184" height="2" fill="#D3D7D8"/>
</g>
<circle cx="92.3333" cy="10" r="10" fill="#D3D7D8"/>
<path d="M88.4659 13H95.0779V11.668H90.5539L92.7379 9.856C93.5659 9.172 94.1539 8.584 94.5019 8.092C94.8499 7.588 95.0299 6.988 95.0299 6.304C95.0299 5.464 94.7299 4.78 94.1299 4.264C93.5299 3.736 92.7619 3.472 91.8379 3.472C91.0339 3.472 90.3379 3.676 89.7499 4.096C89.1739 4.516 88.7899 5.068 88.5979 5.752L89.9179 6.304C90.2899 5.32 90.9259 4.828 91.8259 4.828C92.8699 4.828 93.5059 5.512 93.5059 6.412C93.5059 6.832 93.3859 7.204 93.1459 7.54C92.9059 7.864 92.4619 8.308 91.8259 8.848L88.4659 11.716V13Z" fill="#252A31"/>
<defs>
<clipPath id="clip0_3505_2897">
<rect width="184" height="2" fill="white" transform="translate(0.333252 9)"/>
</clipPath>
</defs>
</svg>
