<svg width="21" height="20" viewBox="0 0 21 20" fill="none" xmlns="http://www.w3.org/2000/svg">
<circle cx="10.6667" cy="10" r="10" fill="#D3D7D8"/>
<path d="M13.386 10.36C13.386 9.304 12.846 8.572 11.766 8.152V8.14C12.714 7.684 13.182 6.964 13.182 5.992C13.182 5.284 12.894 4.696 12.33 4.204C11.766 3.712 10.998 3.472 10.038 3.472C8.44198 3.472 7.32598 4.336 6.89398 5.584L8.17798 6.172C8.56198 5.272 9.17398 4.816 10.014 4.816C11.07 4.816 11.682 5.38 11.682 6.148C11.682 6.532 11.526 6.868 11.202 7.144C10.89 7.42 10.494 7.552 10.014 7.552H9.08998V8.884H10.098C10.614 8.884 11.034 9.028 11.358 9.316C11.694 9.592 11.862 9.94 11.862 10.336C11.862 10.72 11.694 11.056 11.346 11.344C10.998 11.62 10.578 11.764 10.074 11.764C9.12598 11.764 8.44198 11.296 8.03398 10.372L6.76198 10.996C7.32598 12.4 8.41798 13.108 10.05 13.108C11.022 13.108 11.814 12.844 12.438 12.316C13.074 11.776 13.386 11.128 13.386 10.36Z" fill="#252A31"/>
</svg>
