<svg width="16" height="16" viewBox="0 0 16 16" fill="none" xmlns="http://www.w3.org/2000/svg">
<path d="M14.3333 10.3333C14.5199 10.3333 14.6666 10.48 14.6666 10.6666V11.3333C14.6666 12.44 13.7733 13.3333 12.6666 13.3333C12.6666 12.2333 11.7666 11.3333 10.6666 11.3333C9.56659 11.3333 8.66659 12.2333 8.66659 13.3333H7.33325C7.33325 12.2333 6.43325 11.3333 5.33325 11.3333C4.23325 11.3333 3.33325 12.2333 3.33325 13.3333C2.22659 13.3333 1.33325 12.44 1.33325 11.3333V9.99998C1.33325 9.63331 1.63325 9.33331 1.99992 9.33331H8.33325C9.25325 9.33331 9.99992 8.58665 9.99992 7.66665V3.99998C9.99992 3.63331 10.2999 3.33331 10.6666 3.33331H11.2266C11.7066 3.33331 12.1466 3.59331 12.3866 4.00665L12.8133 4.75331C12.8733 4.85998 12.7933 4.99998 12.6666 4.99998C11.7466 4.99998 10.9999 5.74665 10.9999 6.66665V8.66665C10.9999 9.58665 11.7466 10.3333 12.6666 10.3333H14.3333Z" fill="#25373B"/>
<path d="M5.33333 14.6667C6.06971 14.6667 6.66667 14.0697 6.66667 13.3333C6.66667 12.597 6.06971 12 5.33333 12C4.59695 12 4 12.597 4 13.3333C4 14.0697 4.59695 14.6667 5.33333 14.6667Z" fill="#25373B"/>
<path d="M10.6666 14.6667C11.403 14.6667 11.9999 14.0697 11.9999 13.3333C11.9999 12.597 11.403 12 10.6666 12C9.93021 12 9.33325 12.597 9.33325 13.3333C9.33325 14.0697 9.93021 14.6667 10.6666 14.6667Z" fill="#25373B"/>
<path d="M14.6667 8.35333V9.33333H12.6667C12.3 9.33333 12 9.03333 12 8.66667V6.66667C12 6.3 12.3 6 12.6667 6H13.5267L14.4933 7.69333C14.6067 7.89333 14.6667 8.12 14.6667 8.35333Z" fill="#25373B"/>
<path d="M8.71992 1.33331H3.79325C2.43325 1.33331 1.33325 2.43331 1.33325 3.79331V8.04665C1.33325 8.41331 1.63325 8.71331 1.99992 8.71331H8.09992C8.77992 8.71331 9.33325 8.15998 9.33325 7.47998V1.94665C9.33325 1.60665 9.05992 1.33331 8.71992 1.33331ZM6.71325 4.71331L5.31992 6.05998C5.21992 6.15331 5.09325 6.19998 4.97325 6.19998C4.84659 6.19998 4.71992 6.15331 4.62659 6.05998L3.95325 5.41998C3.75325 5.22665 3.74659 4.90665 3.93992 4.70665C4.12659 4.50665 4.44659 4.50665 4.64659 4.69331L4.97325 5.00665L6.01992 3.99331C6.21992 3.79998 6.53325 3.80665 6.72659 4.00665C6.91992 4.20665 6.91325 4.51998 6.71325 4.71331Z" fill="#25373B"/>
</svg>
